<?xml version="1.0" encoding="UTF-8"?>
<svg id="sofia_bold_Kopie" data-name="sofia bold Kopie" xmlns="http://www.w3.org/2000/svg" viewBox="0 0 218.931 47.196">
  <defs>
    <style>
      .cls-1 {
        fill: #1d1d1b;
      }
    </style>
  </defs>
  <path class="cls-1" d="M4.216,33.299c-1.574,0-2.467-1.233-2.467-2.637V6.635c.042-1.446.893-2.637,2.467-2.637h9.271c5.273,0,8.675,3.147,8.675,8.165,0,1.914-.978,4.338-3.997,5.486,3.87.978,5.528,4.294,5.528,6.676,0,4.848-3.53,8.973-9.356,8.973H4.216ZM12.891,15.693c1.616,0,2.722-1.361,2.722-3.104,0-1.829-.936-3.104-2.764-3.104h-4.848v6.208h4.891ZM8,20.627v7.187h5.996c2.084,0,3.147-1.914,3.147-3.657,0-1.659-1.063-3.53-3.274-3.53h-5.869Z"/>
  <path class="cls-1" d="M26.858,23.306c0-6.251,4.636-10.249,10.419-10.249s10.461,3.998,10.461,10.249-4.678,10.376-10.461,10.376-10.419-4.125-10.419-10.376ZM41.785,23.306c0-2.679-2.041-4.508-4.508-4.508-2.424,0-4.465,1.829-4.465,4.508,0,2.722,2.042,4.635,4.465,4.635,2.467,0,4.508-1.913,4.508-4.635Z"/>
  <path class="cls-1" d="M64.341,30.407c-1.063,1.999-3.402,3.274-5.741,3.274-4.465,0-7.314-2.211-7.314-7.867v-9.951c0-1.489,1.361-2.637,2.977-2.637,1.573,0,2.934,1.19,2.977,2.637v8.165c0,2.637.979,3.912,3.445,3.912,2.084,0,3.657-.978,3.657-3.997v-8.08c0-1.489,1.361-2.637,2.977-2.637,1.573,0,2.934,1.19,2.977,2.637v15.011c-.042,1.446-1.403,2.637-2.977,2.637-1.616,0-2.977-1.148-2.977-2.637v-.468Z"/>
  <path class="cls-1" d="M81.024,16.332c1.063-1.999,3.402-3.317,5.741-3.317,4.465,0,7.314,2.764,7.314,8.42v9.44c0,1.488-1.361,2.637-2.977,2.637-1.574,0-2.935-1.19-2.977-2.637v-8.165c0-2.636-1.446-3.955-3.444-3.955-2.084,0-3.657,1.021-3.657,4.04v8.08c0,1.488-1.361,2.637-2.977,2.637-1.573,0-2.934-1.19-2.977-2.637v-15.011c.042-1.446,1.403-2.637,2.977-2.637,1.616,0,2.977,1.148,2.977,2.637v.468Z"/>
  <path class="cls-1" d="M108.428,27.94c1.063,0,2.084-.297,2.935-.766,1.063-.595,2.807-.85,3.87.213,1.19,1.191,1.021,3.359-.383,4.338-1.786,1.275-4.04,1.956-6.422,1.956-5.698,0-10.887-3.997-10.887-10.249v-.127c0-6.251,5.188-10.249,10.887-10.249,2.382,0,4.636.681,6.422,1.957,1.403.978,1.573,3.147.383,4.337-1.063,1.063-2.807.808-3.87.213-.851-.468-1.871-.766-2.935-.766-2.551,0-4.848,1.744-4.848,4.508v.127c0,2.765,2.296,4.508,4.848,4.508Z"/>
  <path class="cls-1" d="M126.72,41.422c-.553,1.318-1.914,2.083-3.742,1.658-1.446-.34-2.297-2.041-1.701-3.572l3.317-8.25-6.167-14.374c-.553-1.531.298-3.147,1.744-3.53,1.871-.468,3.231.383,3.699,1.701l3.743,9.695,3.827-9.695c.468-1.318,1.828-2.169,3.699-1.701,1.446.383,2.297,1.999,1.744,3.53l-10.164,24.538Z"/>
  <path class="cls-1" d="M156.52,3.999c1.403,0,2.552,1.233,2.552,2.765,0,1.403-1.191,2.679-2.552,2.722h-9.738v6.719h7.229c1.403,0,2.552,1.191,2.552,2.679,0,1.403-1.191,2.679-2.552,2.679h-7.229v9.058c0,1.573-1.403,2.892-3.104,2.892-1.616,0-3.104-1.361-3.104-2.892V6.635c.042-1.446.893-2.637,2.467-2.637h13.48Z"/>
  <path class="cls-1" d="M175.748,31.896c-1.999,1.318-4.508,1.786-6.847,1.786-5.698,0-10.377-4.125-10.377-10.376s4.679-10.249,10.377-10.249c5.656,0,10.164,4.168,10.164,10.419,0,1.063-.894,1.828-1.829,1.828h-12.801c.298,2.297,2.808,3.275,4.891,3.275,1.191,0,2.212-.086,3.445-.936,1.36-.937,2.892-.681,3.742.297,1.105,1.276.681,3.104-.766,3.955ZM173.112,21.605c-.298-2.424-1.956-3.615-4.168-3.615s-3.912,1.106-4.422,3.615h8.59Z"/>
  <path class="cls-1" d="M198.751,31.896c-1.999,1.318-4.508,1.786-6.847,1.786-5.698,0-10.377-4.125-10.377-10.376s4.679-10.249,10.377-10.249c5.656,0,10.164,4.168,10.164,10.419,0,1.063-.894,1.828-1.829,1.828h-12.801c.298,2.297,2.808,3.275,4.891,3.275,1.191,0,2.212-.086,3.445-.936,1.36-.937,2.892-.681,3.742.297,1.105,1.276.681,3.104-.766,3.955ZM196.115,21.605c-.298-2.424-1.956-3.615-4.168-3.615s-3.912,1.106-4.422,3.615h8.59Z"/>
  <path class="cls-1" d="M206.848,13.44v-5.188c.043-1.446,1.403-2.637,2.978-2.637,1.616,0,2.977,1.148,2.977,2.637v5.188h2.254c1.19,0,2.126,1.063,2.126,2.339,0,1.233-.936,2.296-2.126,2.339h-2.254v12.757c0,1.488-1.36,2.637-2.977,2.637-1.574,0-2.935-1.19-2.978-2.637v-12.757h-1.615c-1.191-.043-2.127-1.106-2.127-2.339,0-1.275.936-2.339,2.127-2.339h1.615Z"/>
</svg>