<?xml version="1.0" encoding="UTF-8"?>
<svg xmlns="http://www.w3.org/2000/svg" xmlns:xlink="http://www.w3.org/1999/xlink" viewBox="0 0 1024 1024">
  <defs>
    <style>
      .cls-1 {
        fill: url(#Neues_Verlaufsfeld_15);
      }

      .cls-2 {
        fill: #fff;
      }
    </style>
    <linearGradient id="Neues_Verlaufsfeld_15" data-name="Neues Verlaufsfeld 15" x1="598.984" y1="18.689" x2="425.016" y2="1005.311" gradientUnits="userSpaceOnUse">
      <stop offset=".15" stop-color="#7fdb61"/>
      <stop offset=".208" stop-color="#84da5d"/>
      <stop offset=".283" stop-color="#95da53"/>
      <stop offset=".369" stop-color="#b0da43"/>
      <stop offset=".461" stop-color="#d5d92c"/>
      <stop offset=".5" stop-color="#e8d922"/>
      <stop offset=".8" stop-color="#ff7301"/>
    </linearGradient>
  </defs>
  <g id="HG_verlauf" data-name="HG verlauf">
    <rect class="cls-1" x="52.625" y="52.625" width="918.75" height="918.75" rx="197.388" ry="197.388"/>
  </g>
  <g id="schablone">
    <g>
      <path class="cls-2" d="M1024,0H0v1024h1024V0ZM459.787,182.551c13.143-33.565,51.952-48.352,83.934-32.536,28.128,13.91,41.222,47.596,29.781,76.815-13.143,33.565-51.952,48.352-83.934,32.536-28.127-13.91-41.222-47.596-29.781-76.815ZM769.054,680.433c-20.769-88.439-43.713-131.039-59.302-151.202-10.8-13.966-19.013-18.4-22.238-19.234-13.284,3.839-36.293,16.145-62.207,31.281,31.588,28.733,61.417,62.841,79.319,102.483,7.272,16.099,12.368,43.342.515,132.869-5.993,45.273-13.616,85.996-13.937,87.706l-88.18-16.56c.067-.361,6.827-36.504,12.36-76.907,9.025-65.895,7.194-87.549,6.526-92.231-13.577-28.72-38.917-55.535-65.986-78.922,6.293,79.616-1.171,127.925-23.988,156.105-28.333,34.991-94.746,55.419-149.438,69.303-52.871,13.423-100.477,21.078-102.477,21.397l-14.146-88.59.002-.009c.645-.104,45.039-7.267,93.191-19.417,80.711-20.364,100.072-36.236,102.879-38.903,1.215-2.505,7.525-17.927,6.102-64.705-53.918,29.206-93.933,43.486-125.256,35.687-16.614-4.134-30.413-14.296-38.854-28.613-58.836-99.803-133.202-128.376-136.338-129.543l.353.126,29.852-84.61c2.947,1.04,29.824,10.902,65.353,36.57,41.354,29.877,78.563,69.811,108.408,116.207,8.615-2.716,23.44-8.604,47.582-21.37,10.013-5.295,20.544-11.188,31.375-17.448-14.595-33.618-38.723-106.419-21.769-191.973-22.89-10.249-47.271-20.919-69.513-29.275-12.34-4.636-21.983-7.78-29.444-9.91,4.607,25.669,16.024,65.344,29.52,100.365l-83.705,32.303c-.56-1.452-13.85-36.001-24.373-74.443-18.807-68.702-17.69-106.699,3.853-131.15,14.539-16.5,36.074-23.427,64.023-20.583,14.612,1.487,32.025,5.685,53.233,12.833,34.987,11.793,74.309,29.502,109.002,45.126,6.94,3.125,13.629,6.138,19.959,8.954,37.357,16.619,110.584,27.121,144.706,27.382.284-22.436-6.349-65.068-16.513-102.161l86.513-23.774c.41,1.486,10.08,36.852,15.643,75.329,6.852,47.382,9.517,104.9-31.026,129.318-8.739,5.263-29.21,17.59-113.82,6.334-13.943-1.855-27.682-4.148-40.881-6.765-3.988,36.404,3.385,67.933,10.347,88.11,41.833-25.264,78.017-45.614,105.078-53.752,16.507-5.803,42.365-6.767,69.42,6.901,54.877,27.72,95.969,102.577,125.623,228.846l-87.345,20.513Z"/>
      <path class="cls-2" d="M505.041,229.574c17.351,8.091,36.716,6.386,51.908-2.792,1.867-1.128,2.862-3.26,2.525-5.416-2.735-17.537-13.876-33.468-31.227-41.558-17.351-8.091-36.716-6.386-51.908,2.792-1.867,1.128-2.862,3.26-2.525,5.416,2.735,17.537,13.876,33.468,31.227,41.559ZM498.212,196.096c4.747-10.18,16.847-14.584,27.027-9.837s14.584,16.847,9.837,27.027c-4.747,10.18-16.847,14.584-27.027,9.837-10.18-4.747-14.584-16.847-9.837-27.027Z"/>
    </g>
  </g>
</svg>