<?xml version="1.0" encoding="UTF-8" standalone="no"?>
<svg
   viewBox="83 71 346 361.54296"
   version="1.1"
   id="svg29"
   sodipodi:docname="icon_tight_on_black.svg"
   inkscape:version="1.2.2 (b0a8486541, 2022-12-01)"
   inkscape:export-filename="icon_tight_on_black.png"
   inkscape:export-xdpi="139.63637"
   inkscape:export-ydpi="139.63637"
   width="512"
   height="535"
   xmlns:inkscape="http://www.inkscape.org/namespaces/inkscape"
   xmlns:sodipodi="http://sodipodi.sourceforge.net/DTD/sodipodi-0.dtd"
   xmlns="http://www.w3.org/2000/svg"
   xmlns:svg="http://www.w3.org/2000/svg">
  <sodipodi:namedview
     id="namedview31"
     pagecolor="#ffffff"
     bordercolor="#666666"
     borderopacity="1.0"
     inkscape:showpageshadow="2"
     inkscape:pageopacity="0.0"
     inkscape:pagecheckerboard="0"
     inkscape:deskcolor="#d1d1d1"
     showgrid="false"
     inkscape:zoom="0.61620011"
     inkscape:cx="-19.474193"
     inkscape:cy="409.76948"
     inkscape:window-width="1854"
     inkscape:window-height="1011"
     inkscape:window-x="66"
     inkscape:window-y="32"
     inkscape:window-maximized="1"
     inkscape:current-layer="svg29" />
  <defs
     id="defs17">
    <style
       id="style2">
      .cls-1 {
        fill: url(#Unbenannter_Verlauf_7);
      }

      .cls-2 {
        fill: #1d1d1b;
      }
    </style>
    <linearGradient
       id="Unbenannter_Verlauf_7"
       data-name="Unbenannter Verlauf 7"
       x1="212.508"
       y1="9.3439999"
       x2="299.492"
       y2="502.65601"
       gradientUnits="userSpaceOnUse">
      <stop
         offset=".159"
         stop-color="#a9eb66"
         id="stop4" />
      <stop
         offset=".434"
         stop-color="#a7e965"
         id="stop6" />
      <stop
         offset=".534"
         stop-color="#a0e565"
         id="stop8" />
      <stop
         offset=".604"
         stop-color="#94de64"
         id="stop10" />
      <stop
         offset=".661"
         stop-color="#83d462"
         id="stop12" />
      <stop
         offset=".704"
         stop-color="#71c961"
         id="stop14" />
    </linearGradient>
  </defs>
  <g
     id="HG_verlauf"
     data-name="HG verlauf">
    <rect
       class="cls-1"
       x="26.312"
       y="26.312"
       width="459.375"
       height="459.375"
       rx="98.694"
       ry="98.694"
       id="rect19"
       style="fill:url(#Unbenannter_Verlauf_7)" />
  </g>
  <g
     id="schablone"
     style="fill:#000000">
    <g
       id="g26"
       style="fill:#000000">
      <path
         class="cls-2"
         d="M 512,0 H 0 V 512 H 512 Z M 229.893,91.276 c 6.571,-16.782 25.976,-24.176 41.967,-16.268 14.064,6.955 20.611,23.798 14.89,38.408 -6.571,16.782 -25.976,24.176 -41.967,16.268 -14.064,-6.955 -20.611,-23.798 -14.89,-38.407 z m 154.634,248.941 c -10.385,-44.219 -21.857,-65.52 -29.651,-75.601 -5.4,-6.983 -9.507,-9.2 -11.119,-9.617 -6.642,1.92 -18.147,8.072 -31.103,15.641 15.794,14.367 30.708,31.42 39.659,51.241 3.636,8.05 6.184,21.671 0.258,66.434 -2.997,22.636 -6.808,42.998 -6.968,43.853 l -44.09,-8.28 c 0.033,-0.18 3.414,-18.252 6.18,-38.453 4.512,-32.947 3.597,-43.774 3.263,-46.116 -6.789,-14.36 -19.458,-27.767 -32.993,-39.461 3.146,39.808 -0.585,63.963 -11.994,78.053 -14.167,17.496 -47.373,27.709 -74.719,34.651 -26.435,6.712 -50.238,10.539 -51.239,10.698 l -7.073,-44.295 v -0.005 c 0.323,-0.052 22.521,-3.634 46.596,-9.709 40.355,-10.182 50.036,-18.118 51.44,-19.451 0.608,-1.253 3.762,-8.964 3.051,-32.352 -26.959,14.603 -46.966,21.743 -62.628,17.844 -8.307,-2.067 -15.207,-7.148 -19.427,-14.306 -29.418,-49.902 -66.601,-64.188 -68.169,-64.771 l 0.177,0.063 14.926,-42.305 c 1.474,0.52 14.912,5.451 32.677,18.285 20.677,14.939 39.282,34.906 54.204,58.104 4.307,-1.358 11.72,-4.302 23.791,-10.685 5.006,-2.647 10.272,-5.594 15.687,-8.724 -7.297,-16.809 -19.362,-53.209 -10.885,-95.986 -11.445,-5.125 -23.635,-10.46 -34.756,-14.637 -6.17,-2.318 -10.991,-3.89 -14.722,-4.955 2.303,12.834 8.012,32.672 14.76,50.182 l -41.852,16.152 c -0.28,-0.726 -6.925,-18 -12.186,-37.221 -9.403,-34.351 -8.845,-53.349 1.926,-65.575 7.269,-8.25 18.037,-11.713 32.012,-10.291 7.306,0.743 16.012,2.842 26.616,6.416 17.494,5.897 37.154,14.751 54.501,22.563 3.47,1.563 6.815,3.069 9.979,4.477 18.679,8.309 55.292,13.56 72.353,13.691 0.142,-11.218 -3.174,-32.534 -8.256,-51.08 L 358.01,92.802 c 0.205,0.743 5.04,18.426 7.822,37.664 3.426,23.691 4.759,52.45 -15.513,64.659 -4.37,2.632 -14.605,8.795 -56.91,3.167 -6.972,-0.928 -13.841,-2.074 -20.44,-3.383 -1.994,18.202 1.692,33.967 5.174,44.055 20.917,-12.632 39.008,-22.807 52.539,-26.876 8.254,-2.901 21.183,-3.383 34.71,3.45 27.439,13.86 47.984,51.289 62.811,114.423 l -43.673,10.257 z"
         id="path22"
         style="fill:#000000" />
      <path
         class="cls-2"
         d="m 252.521,114.787 c 8.676,4.046 18.358,3.193 25.954,-1.396 0.934,-0.564 1.431,-1.63 1.263,-2.708 -1.367,-8.769 -6.938,-16.734 -15.613,-20.779 -8.676,-4.046 -18.358,-3.193 -25.954,1.396 -0.934,0.564 -1.431,1.63 -1.263,2.708 1.367,8.769 6.938,16.734 15.613,20.779 z m -3.415,-16.739 c 2.373,-5.09 8.424,-7.292 13.514,-4.919 5.09,2.373 7.292,8.424 4.919,13.514 -2.373,5.09 -8.424,7.292 -13.514,4.919 -5.09,-2.373 -7.292,-8.424 -4.919,-13.514 z"
         id="path24"
         style="fill:#000000" />
    </g>
  </g>
</svg>
