<?xml version="1.0" encoding="UTF-8" standalone="no"?>
<svg
   viewBox="0 0 512 512"
   version="1.1"
   id="svg45"
   sodipodi:docname="new-logo-plain.svg"
   inkscape:version="1.2.2 (b0a8486541, 2022-12-01)"
   xmlns:inkscape="http://www.inkscape.org/namespaces/inkscape"
   xmlns:sodipodi="http://sodipodi.sourceforge.net/DTD/sodipodi-0.dtd"
   xmlns="http://www.w3.org/2000/svg"
   xmlns:svg="http://www.w3.org/2000/svg">
  <sodipodi:namedview
     id="namedview47"
     pagecolor="#ffffff"
     bordercolor="#666666"
     borderopacity="1.0"
     inkscape:showpageshadow="2"
     inkscape:pageopacity="0.0"
     inkscape:pagecheckerboard="true"
     inkscape:deskcolor="#d1d1d1"
     showgrid="false"
     inkscape:zoom="1.6445312"
     inkscape:cx="256.91211"
     inkscape:cy="256.91211"
     inkscape:window-width="1854"
     inkscape:window-height="1011"
     inkscape:window-x="66"
     inkscape:window-y="32"
     inkscape:window-maximized="1"
     inkscape:current-layer="svg45" />
  <defs
     id="defs22">
    <style
       id="style2">
      .cls-1 {
        fill: #fff;
      }

      .cls-2 {
        fill: url(#Unbenannter_Verlauf_12);
      }

      .cls-3 {
        fill: url(#Neues_Verlaufsfeld_1);
      }
    </style>
    <linearGradient
       id="Neues_Verlaufsfeld_1"
       data-name="Neues Verlaufsfeld 1"
       x1="0"
       y1="256"
       x2="512"
       y2="256"
       gradientUnits="userSpaceOnUse">
      <stop
         offset="0"
         stop-color="#a9eb66"
         id="stop4" />
      <stop
         offset="1"
         stop-color="#ff7301"
         id="stop6" />
    </linearGradient>
    <linearGradient
       id="Unbenannter_Verlauf_12"
       data-name="Unbenannter Verlauf 12"
       x1="307.498"
       y1="-36.059"
       x2="204.502"
       y2="548.059"
       gradientUnits="userSpaceOnUse">
      <stop
         offset="0"
         stop-color="#a9eb66"
         id="stop9" />
      <stop
         offset=".093"
         stop-color="#aee960"
         id="stop11" />
      <stop
         offset=".215"
         stop-color="#bde54f"
         id="stop13" />
      <stop
         offset=".353"
         stop-color="#d6de34"
         id="stop15" />
      <stop
         offset=".432"
         stop-color="#e8d922"
         id="stop17" />
      <stop
         offset=".93"
         stop-color="#ff7301"
         id="stop19" />
    </linearGradient>
  </defs>
  <g
     id="logo_pfad"
     data-name="logo pfad">
    <path
       class="cls-1"
       d="M367.615,269.869c8.688,11.236,21.474,34.977,33.048,84.262l48.676-11.432c-16.525-70.367-39.425-112.083-70.007-127.531-15.077-7.617-29.487-7.08-38.687-3.846-15.081,4.535-35.245,15.876-58.558,29.955-3.88-11.244-7.988-28.815-5.766-49.102,7.356,1.459,15.012,2.736,22.782,3.77,47.151,6.273,58.56-.597,63.43-3.53,22.594-13.608,21.108-45.662,17.29-72.066-3.101-21.442-8.489-41.151-8.718-41.979l-48.212,13.249c5.664,20.671,9.36,44.429,9.202,56.932-19.016-.146-59.823-5.998-80.642-15.259-3.527-1.569-7.255-3.248-11.123-4.99-19.334-8.707-41.247-18.576-60.745-25.148-11.819-3.983-21.522-6.323-29.666-7.151-15.576-1.585-27.577,2.275-35.679,11.47-12.005,13.626-12.627,34.801-2.147,73.087,5.864,21.423,13.271,40.676,13.583,41.485l46.647-18.002c-7.521-19.516-13.883-41.626-16.451-55.931,4.158,1.187,9.532,2.939,16.409,5.522,12.395,4.656,25.982,10.603,38.738,16.314-9.448,47.677,3.998,88.248,12.132,106.982-6.036,3.489-11.905,6.773-17.484,9.724-13.454,7.114-21.716,10.396-26.517,11.909-16.632-25.855-37.368-48.11-60.414-64.76-19.8-14.305-34.777-19.8-36.42-20.38l-16.636,47.151-.197-.07c1.748.65,43.19,16.573,75.979,72.191,4.704,7.979,12.394,13.642,21.652,15.945,17.456,4.346,39.755-3.612,69.803-19.888.793,26.068-2.723,34.662-3.4,36.059-1.564,1.486-12.354,10.331-57.333,21.68-26.771,6.755-51.458,10.744-51.93,10.82-.002,0-.004,0-.005,0l7.884,49.374c1.115-.178,27.645-4.443,57.108-11.924,30.479-7.737,67.489-19.121,83.279-38.621,12.716-15.704,16.875-42.626,13.368-86.994,15.085,13.033,29.206,27.977,36.772,43.981.372,2.609,1.393,14.677-3.637,51.398-3.083,22.516-6.851,42.657-6.888,42.858l49.141,9.229c.179-.953,4.427-23.647,7.767-48.877,6.605-49.892,3.766-65.073-.287-74.045-9.977-22.092-26.599-41.099-44.203-57.112,14.441-8.435,27.264-15.293,34.667-17.432,1.797.465,6.374,2.936,12.393,10.719Z"
       id="path36" />
    <g
       id="g42">
      <path
         class="cls-1"
         d="M274.369,58.194c-17.019-7.936-37.249-.573-45.185,16.446-7.936,17.019-.573,37.249,16.446,45.185,17.019,7.936,37.249.573,45.185-16.446,7.936-17.019.573-37.249-16.446-45.185ZM253.534,102.876c-9.669-4.509-15.878-13.387-17.402-23.16-.187-1.201.367-2.389,1.407-3.018,8.466-5.115,19.258-6.065,28.927-1.556,9.669,4.509,15.878,13.387,17.402,23.16.187,1.201-.367,2.389-1.407,3.018-8.466,5.115-19.258,6.065-28.927,1.556Z"
         id="path38" />
      <circle
         class="cls-1"
         cx="260"
         cy="89.009"
         r="11.334"
         id="circle40" />
    </g>
  </g>
</svg>
