<?xml version="1.0" encoding="UTF-8"?>
<svg xmlns="http://www.w3.org/2000/svg" xmlns:xlink="http://www.w3.org/1999/xlink" viewBox="0 0 512 512">
  <defs>
    <style>
      .cls-1 {
        fill: url(#Unbenannter_Verlauf_8);
      }

      .cls-2 {
        fill: #fff;
      }
    </style>
    <linearGradient id="Unbenannter_Verlauf_8" data-name="Unbenannter Verlauf 8" x1="256" y1="0" x2="256" y2="512" gradientUnits="userSpaceOnUse">
      <stop offset="0" stop-color="#7fdb61"/>
      <stop offset=".113" stop-color="#82da5f"/>
      <stop offset=".204" stop-color="#8cda59"/>
      <stop offset=".288" stop-color="#9dda4e"/>
      <stop offset=".367" stop-color="#b5d940"/>
      <stop offset=".442" stop-color="#d3d92e"/>
      <stop offset=".483" stop-color="#e8d922"/>
      <stop offset=".533" stop-color="#ebc91c"/>
      <stop offset=".691" stop-color="#f69a0d"/>
      <stop offset=".813" stop-color="#fc7d04"/>
      <stop offset=".882" stop-color="#ff7301"/>
    </linearGradient>
  </defs>
  <g id="HG_verlauf" data-name="HG verlauf">
    <rect class="cls-1" width="512" height="512" rx="110" ry="110"/>
  </g>
  <g id="schablone">
    <g>
      <path class="cls-2" d="M512,0H0v512h512V0ZM228.315,76.671c7.324-18.705,28.951-26.946,46.775-18.132,15.675,7.752,22.972,26.524,16.596,42.807-7.324,18.705-28.952,26.946-46.775,18.132-15.675-7.752-22.972-26.524-16.596-42.807ZM400.663,354.13c-11.574-49.285-24.36-73.025-33.048-84.262-6.019-7.783-10.596-10.254-12.393-10.719-7.403,2.14-20.225,8.997-34.667,17.432,17.604,16.012,34.226,35.02,44.203,57.112,4.053,8.972,6.893,24.153.287,74.045-3.34,25.229-7.588,47.924-7.767,48.877l-49.141-9.229c.037-.201,3.805-20.343,6.888-42.858,5.029-36.722,4.009-48.789,3.637-51.398-7.566-16.005-21.688-30.948-36.772-43.981,3.507,44.368-.652,71.29-13.368,86.994-15.79,19.5-52.8,30.884-83.279,38.621-29.464,7.48-55.994,11.746-57.108,11.924l-7.883-49.369v-.005c.36-.058,25.101-4.05,51.934-10.821,44.979-11.349,55.768-20.193,57.333-21.68.677-1.396,4.193-9.991,3.4-36.059-30.048,16.276-52.347,24.234-69.803,19.888-9.259-2.304-16.949-7.967-21.652-15.945-32.788-55.618-74.23-71.541-75.979-72.191l.197.07,16.636-47.151c1.643.58,16.62,6.075,36.42,20.38,23.046,16.65,43.782,38.904,60.414,64.76,4.801-1.514,13.062-4.795,26.517-11.909,5.58-2.951,11.449-6.235,17.484-9.724-8.133-18.735-21.58-59.305-12.132-106.982-12.756-5.712-26.343-11.658-38.738-16.314-6.877-2.583-12.25-4.335-16.409-5.522,2.567,14.305,8.93,36.415,16.451,55.931l-46.647,18.002c-.312-.809-7.718-20.062-13.583-41.485-10.48-38.286-9.858-59.461,2.147-73.087,8.102-9.195,20.103-13.055,35.679-11.47,8.143.829,17.847,3.168,29.666,7.151,19.498,6.572,41.411,16.441,60.745,25.148,3.868,1.742,7.595,3.42,11.123,4.99,20.818,9.261,61.626,15.114,80.642,15.259.158-12.503-3.538-36.261-9.202-56.932l48.212-13.249c.229.828,5.617,20.537,8.718,41.979,3.818,26.405,5.304,58.458-17.29,72.066-4.87,2.933-16.278,9.803-63.43,3.53-7.77-1.034-15.426-2.311-22.782-3.77-2.222,20.287,1.886,37.858,5.766,49.102,23.313-14.079,43.477-25.42,58.558-29.955,9.199-3.234,23.609-3.771,38.687,3.846,30.582,15.448,53.481,57.164,70.007,127.531l-48.676,11.432Z"/>
      <path class="cls-2" d="M253.534,102.876c9.669,4.509,20.461,3.559,28.927-1.556,1.041-.629,1.595-1.817,1.407-3.018-1.524-9.773-7.733-18.651-17.402-23.16-9.669-4.509-20.461-3.559-28.927,1.556-1.041.629-1.595,1.817-1.407,3.018,1.524,9.773,7.733,18.651,17.402,23.16ZM249.728,84.219c2.645-5.673,9.389-8.127,15.062-5.482s8.127,9.389,5.482,15.062c-2.645,5.673-9.389,8.127-15.062,5.482-5.673-2.645-8.127-9.389-5.482-15.062Z"/>
    </g>
  </g>
</svg>