<?xml version="1.0" encoding="UTF-8"?>
<svg id="logo_pfad" data-name="logo pfad" xmlns="http://www.w3.org/2000/svg" viewBox="0 0 21.027 22">
  <defs>
    <style>
      .cls-1 {
        fill: #1d1d1b;
      }
    </style>
  </defs>
  <path class="cls-1" d="M16.55,11.77c.476.616,1.176,1.916,1.81,4.616l2.666-.626c-.905-3.855-2.16-6.14-3.835-6.986-.826-.417-1.615-.388-2.119-.211-.826.248-1.931.87-3.208,1.641-.213-.616-.438-1.578-.316-2.69.403.08.822.15,1.248.207,2.583.344,3.208-.033,3.475-.193,1.238-.745,1.156-2.501.947-3.948-.17-1.175-.465-2.254-.478-2.3l-2.641.726c.31,1.132.513,2.434.504,3.119-1.042-.008-3.277-.329-4.417-.836-.193-.086-.397-.178-.609-.273-1.059-.477-2.259-1.018-3.328-1.378-.647-.218-1.179-.346-1.625-.392-.853-.087-1.511.125-1.954.628-.658.746-.692,1.906-.118,4.004.321,1.174.727,2.228.744,2.273l2.555-.986c-.412-1.069-.761-2.28-.901-3.064.228.065.522.161.899.303.679.255,1.423.581,2.122.894-.518,2.612.219,4.834.665,5.86-.331.191-.652.371-.958.533-.737.39-1.19.569-1.453.652-.911-1.416-2.047-2.635-3.309-3.547-1.085-.784-1.905-1.085-1.995-1.116L.011,11.261l-.011-.004c.096.036,2.366.908,4.162,3.955.258.437.679.747,1.186.873.956.238,2.178-.198,3.824-1.089.043,1.428-.149,1.899-.186,1.975-.086.081-.677.566-3.141,1.188-1.466.37-2.819.589-2.845.593,0,0,0,0,0,0l.432,2.705c.061-.01,1.514-.243,3.128-.653,1.67-.424,3.697-1.047,4.562-2.116.697-.86.924-2.335.732-4.765.826.714,1.6,1.533,2.014,2.409.02.143.076.804-.199,2.816-.169,1.233-.375,2.337-.377,2.348l2.692.506c.01-.052.242-1.295.425-2.677.362-2.733.206-3.565-.016-4.056-.547-1.21-1.457-2.251-2.421-3.128.791-.462,1.493-.838,1.899-.955.098.025.349.161.679.587Z"/>
  <g>
    <path class="cls-1" d="M11.442.175c-.932-.435-2.04-.031-2.475.901s-.031,2.04.901,2.475,2.04.031,2.475-.901.031-2.04-.901-2.475ZM10.301,2.623c-.53-.247-.87-.733-.953-1.269-.01-.066.02-.131.077-.165.464-.28,1.055-.332,1.585-.085s.87.733.953,1.269c.01.066-.02.131-.077.165-.464.28-1.055.332-1.585.085Z"/>
    <circle class="cls-1" cx="10.655" cy="1.863" r=".621"/>
  </g>
</svg>