<?xml version="1.0" encoding="UTF-8" standalone="no"?>
<svg
   id="logo_pfad"
   data-name="logo pfad"
   viewBox="0 0 199.99983 200"
   version="1.1"
   sodipodi:docname="bf_audio_vol_off.svg"
   inkscape:version="1.2.2 (b0a8486541, 2022-12-01)"
   width="199.99983"
   height="200"
   xmlns:inkscape="http://www.inkscape.org/namespaces/inkscape"
   xmlns:sodipodi="http://sodipodi.sourceforge.net/DTD/sodipodi-0.dtd"
   xmlns="http://www.w3.org/2000/svg"
   xmlns:svg="http://www.w3.org/2000/svg">
  <sodipodi:namedview
     id="namedview11"
     pagecolor="#ffffff"
     bordercolor="#666666"
     borderopacity="1.0"
     inkscape:showpageshadow="2"
     inkscape:pageopacity="0.0"
     inkscape:pagecheckerboard="true"
     inkscape:deskcolor="#d1d1d1"
     showgrid="false"
     inkscape:zoom="1.4257987"
     inkscape:cx="8.4163351"
     inkscape:cy="166.5733"
     inkscape:window-width="1854"
     inkscape:window-height="1011"
     inkscape:window-x="66"
     inkscape:window-y="32"
     inkscape:window-maximized="1"
     inkscape:current-layer="logo_pfad" />
  <defs
     id="defs4">
    <style
       id="style2">
      .cls-1 {
        fill: #ff7301;
      }
    </style>
  </defs>
  <path
     class="cls-1"
     d="m 100.06491,15 c 12.423,0 24.484,2.687 35.847,7.985 20.571,9.593 36.176,26.622 43.939,47.951 7.763,21.329 6.756,44.405 -2.837,64.976 -6.971,14.949 -18.011,27.443 -31.927,36.131 -13.577,8.476 -29.191,12.957 -45.152996,12.957 -12.423,0 -24.484,-2.687 -35.847,-7.985 -20.571,-9.593 -36.176,-26.622 -43.939,-47.951 -7.763,-21.329 -6.756,-44.405 2.837,-64.976 6.971,-14.949 18.011,-27.443 31.927,-36.131 C 68.488914,19.481 84.102914,15 100.06491,15 m 0,-15 C 62.410914,0 26.353914,21.371 9.3909137,57.748 c -23.3349997,50.042 -1.685,109.526 48.3570003,132.861 13.665,6.372 28.042,9.391 42.187,9.391 37.653996,0 73.710996,-21.371 90.673996,-57.748 23.335,-50.042 1.685,-109.526 -48.357,-132.861 C 128.58691,3.019 114.20991,0 100.06491,0 Z"
     id="path6"
     style="fill:#000000;fill-opacity:1" />
  <rect
     class="cls-1"
     x="24.499914"
     y="70"
     width="60"
     height="60"
     rx="7.3786669"
     ry="7.3786674"
     id="rect8"
     style="fill:#000000;fill-opacity:1;stroke-width:0.666667" />
  <path
     class="cls-1"
     d="m 29.86227,91.721429 78.55137,-40.426395 c 7.14981,-3.679472 16.08628,0.919629 16.08628,8.278573 v 80.852783 c 0,7.35895 -8.93647,11.95805 -16.08628,8.27858 l -78.55137,-40.4264 c -7.149808,-3.67947 -7.149808,-12.87863 0,-16.558101 z"
     id="path300"
     style="fill:#000000;fill-opacity:1;stroke-width:1.01252" />
  <path
     style="fill:none;stroke:#000000;stroke-width:20;stroke-linecap:butt;stroke-linejoin:miter;stroke-dasharray:none;stroke-opacity:1"
     d="M 40.311093,23.381701 164.18168,170.63057"
     id="path4922" />
</svg>
