<?xml version="1.0" encoding="UTF-8" standalone="no"?>
<svg
   id="logo_pfad"
   data-name="logo pfad"
   viewBox="0 0 215 215"
   version="1.1"
   sodipodi:docname="audio_vol_off.svg"
   inkscape:version="1.2.2 (b0a8486541, 2022-12-01)"
   xmlns:inkscape="http://www.inkscape.org/namespaces/inkscape"
   xmlns:sodipodi="http://sodipodi.sourceforge.net/DTD/sodipodi-0.dtd"
   xmlns="http://www.w3.org/2000/svg"
   xmlns:svg="http://www.w3.org/2000/svg">
  <sodipodi:namedview
     id="namedview11"
     pagecolor="#ffffff"
     bordercolor="#666666"
     borderopacity="1.0"
     inkscape:showpageshadow="2"
     inkscape:pageopacity="0.0"
     inkscape:pagecheckerboard="true"
     inkscape:deskcolor="#d1d1d1"
     showgrid="false"
     inkscape:zoom="0.53700457"
     inkscape:cx="-364.05649"
     inkscape:cy="174.11397"
     inkscape:window-width="1854"
     inkscape:window-height="1011"
     inkscape:window-x="66"
     inkscape:window-y="32"
     inkscape:window-maximized="1"
     inkscape:current-layer="logo_pfad" />
  <defs
     id="defs4">
    <style
       id="style2">
      .cls-1 {
        fill: #ff7301;
      }
    </style>
  </defs>
  <path
     class="cls-1"
     d="M107.565,22.5c12.423,0,24.484,2.687,35.847,7.985,20.571,9.593,36.176,26.622,43.939,47.951,7.763,21.329,6.756,44.405-2.837,64.976-6.971,14.949-18.011,27.443-31.927,36.131-13.577,8.476-29.191,12.957-45.153,12.957-12.423,0-24.484-2.687-35.847-7.985-20.571-9.593-36.176-26.622-43.939-47.951-7.763-21.329-6.756-44.405,2.837-64.976,6.971-14.949,18.011-27.443,31.927-36.131,13.577-8.476,29.191-12.957,45.153-12.957M107.565,7.5c-37.654,0-73.711,21.371-90.674,57.748-23.335,50.042-1.685,109.526,48.357,132.861,13.665,6.372,28.042,9.391,42.187,9.391,37.654,0,73.711-21.371,90.674-57.748,23.335-50.042,1.685-109.526-48.357-132.861-13.665-6.372-28.042-9.391-42.187-9.391h0Z"
     id="path6"
     style="fill:#000000;fill-opacity:1" />
  <rect
     class="cls-1"
     x="32"
     y="77.5"
     width="60"
     height="60"
     rx="7.3786669"
     ry="7.3786674"
     id="rect8"
     style="fill:#000000;fill-opacity:1;stroke-width:0.666667" />
  <path
     class="cls-1"
     d="M 37.362356,99.221429 115.91373,58.795034 c 7.14981,-3.679472 16.08628,0.919629 16.08628,8.278573 v 80.852783 c 0,7.35895 -8.93647,11.95805 -16.08628,8.27858 l -78.551374,-40.4264 c -7.149808,-3.67947 -7.149808,-12.87863 0,-16.558101 z"
     id="path300"
     style="fill:#000000;fill-opacity:1;stroke-width:1.01252" />
  <path
     style="fill:none;stroke:#000000;stroke-width:20;stroke-linecap:butt;stroke-linejoin:miter;stroke-opacity:1;stroke-dasharray:none"
     d="M 47.811179,30.881701 171.68177,178.13057"
     id="path4922" />
</svg>
