<?xml version="1.0" encoding="UTF-8" standalone="no"?>
<svg
   id="logo_pfad"
   data-name="logo pfad"
   viewBox="0 0 215 215"
   version="1.1"
   sodipodi:docname="audio_vol.svg"
   inkscape:version="1.2.2 (b0a8486541, 2022-12-01)"
   xmlns:inkscape="http://www.inkscape.org/namespaces/inkscape"
   xmlns:sodipodi="http://sodipodi.sourceforge.net/DTD/sodipodi-0.dtd"
   xmlns="http://www.w3.org/2000/svg"
   xmlns:svg="http://www.w3.org/2000/svg">
  <sodipodi:namedview
     id="namedview11"
     pagecolor="#ffffff"
     bordercolor="#666666"
     borderopacity="1.0"
     inkscape:showpageshadow="2"
     inkscape:pageopacity="0.0"
     inkscape:pagecheckerboard="true"
     inkscape:deskcolor="#d1d1d1"
     showgrid="false"
     inkscape:zoom="1.0240658"
     inkscape:cx="-84.467229"
     inkscape:cy="133.29222"
     inkscape:window-width="1854"
     inkscape:window-height="1011"
     inkscape:window-x="66"
     inkscape:window-y="32"
     inkscape:window-maximized="1"
     inkscape:current-layer="logo_pfad" />
  <defs
     id="defs4">
    <style
       id="style2">
      .cls-1 {
        fill: #ff7301;
      }
    </style>
  </defs>
  <rect
     class="cls-1"
     x="32"
     y="77.5"
     width="60"
     height="60"
     rx="7.3786669"
     ry="7.3786674"
     id="rect8"
     style="fill:#000000;fill-opacity:1;stroke-width:0.666667" />
  <path
     class="cls-1"
     d="M 37.362356,99.221429 115.91373,58.795034 c 7.14981,-3.679472 16.08628,0.919629 16.08628,8.278573 v 80.852783 c 0,7.35895 -8.93647,11.95805 -16.08628,8.27858 l -78.551374,-40.4264 c -7.149808,-3.67947 -7.149808,-12.87863 0,-16.558101 z"
     id="path300"
     style="fill:#000000;fill-opacity:1;stroke-width:1.01252" />
  <path
     style="fill:none;stroke:#000000;stroke-width:9;stroke-linecap:round;stroke-linejoin:round;stroke-dasharray:none;stroke-opacity:1"
     id="path507"
     sodipodi:type="arc"
     sodipodi:cx="-106.62267"
     sodipodi:cy="140.09686"
     sodipodi:rx="24.542379"
     sodipodi:ry="18.15649"
     sodipodi:start="0"
     sodipodi:end="3.1831864"
     sodipodi:arc-type="arc"
     d="m -82.080294,140.09686 a 24.542379,18.15649 0 0 1 -12.567042,15.84834 24.542379,18.15649 0 0 1 -24.831094,-0.3821 24.542379,18.15649 0 0 1 -11.6654,-16.22122"
     transform="rotate(-90)"
     sodipodi:open="true" />
  <path
     style="fill:none;stroke:#000000;stroke-width:9;stroke-linecap:round;stroke-linejoin:round;stroke-dasharray:none;stroke-opacity:1"
     id="path507-3"
     sodipodi:type="arc"
     sodipodi:cx="-105.9948"
     sodipodi:cy="143.04451"
     sodipodi:rx="41.771645"
     sodipodi:ry="31.616447"
     sodipodi:start="0"
     sodipodi:end="3.1608699"
     sodipodi:arc-type="arc"
     d="m -64.223152,143.04451 a 41.771645,31.616447 0 0 1 -21.118705,27.48166 41.771645,31.616447 0 0 1 -42.001933,-0.30643 41.771645,31.616447 0 0 1 -20.41489,-27.78467"
     transform="rotate(-90)"
     sodipodi:open="true" />
</svg>
