<?xml version="1.0" encoding="UTF-8" standalone="no"?>
<svg
   id="logo_pfad"
   data-name="logo pfad"
   viewBox="0 0 177.5 158.61433"
   version="1.1"
   sodipodi:docname="bf_error.svg"
   xml:space="preserve"
   inkscape:version="1.4.2 (unknown)"
   width="177.5"
   height="158.61433"
   xmlns:inkscape="http://www.inkscape.org/namespaces/inkscape"
   xmlns:sodipodi="http://sodipodi.sourceforge.net/DTD/sodipodi-0.dtd"
   xmlns="http://www.w3.org/2000/svg"
   xmlns:svg="http://www.w3.org/2000/svg"><path
     id="path2"
     style="fill:#000000;stroke-width:1.67977"
     class="cls-1"
     d="M 88.75 0.89453125 C 83.099501 0.89453125 77.447487 3.6963132 74.21875 9.3027344 L 74.220703 9.3027344 L 3.2734375 132.49219 C -3.184034 143.70504 4.8858363 157.7207 17.800781 157.7207 L 159.69922 157.7207 C 172.61416 157.7207 180.68403 143.70504 174.22656 132.49219 L 103.2793 9.3027344 C 100.05055 3.6963132 94.400499 0.89453125 88.75 0.89453125 z M 88.5 37.5 A 12.5 12.5 0 0 1 101 50 L 101 100 A 12.5 12.5 0 0 1 88.5 112.5 A 12.5 12.5 0 0 1 76 100 L 76 50 A 12.5 12.5 0 0 1 88.5 37.5 z M 88.5 122.5 A 12.5 12.5 0 0 1 101 135 A 12.5 12.5 0 0 1 88.5 147.5 A 12.5 12.5 0 0 1 76 135 A 12.5 12.5 0 0 1 88.5 122.5 z " /></svg>
