<?xml version="1.0" encoding="UTF-8"?>
<svg id="logo_pfad" data-name="logo pfad" xmlns="http://www.w3.org/2000/svg" viewBox="0 0 200 200">
  <defs>
    <style>
      .cls-1 {
        fill: #ff7301;
      }
    </style>
  </defs>
  <path class="cls-1" d="M142.252,9.391C92.21-13.944,32.726,7.706,9.391,57.748c-23.335,50.042-1.685,109.526,48.357,132.861,50.042,23.335,109.526,1.685,132.861-48.357,23.335-50.042,1.685-109.526-48.357-132.861ZM80.987,140.774c-28.432-13.258-46.688-39.362-51.169-68.099-.551-3.532,1.079-7.026,4.138-8.874,24.894-15.039,56.625-17.834,85.057-4.575,28.432,13.258,46.688,39.362,51.169,68.099.551,3.532-1.079,7.026-4.138,8.874-24.894,15.039-56.625,17.834-85.057,4.575Z"/>
  <circle class="cls-1" cx="100" cy="100" r="33.325"/>
</svg>