<?xml version="1.0" encoding="UTF-8" standalone="no"?>
<svg
   id="logo_pfad"
   data-name="logo pfad"
   viewBox="0 0 215 215"
   version="1.1"
   xmlns="http://www.w3.org/2000/svg"
   xmlns:svg="http://www.w3.org/2000/svg">
  <defs
     id="defs1">
    <style
       id="style1">
      .cls-1 {
        fill: #ff7301;
      }
    </style>
  </defs>
  <path
     class="cls-1"
     d="M 82.318822,97.946778 43.043133,75.712265 C 39.468228,73.688561 35,76.218066 35,80.265486 v 44.469024 c 0,4.04743 4.468228,6.57693 8.043133,4.55323 l 39.275689,-22.23452 c 3.574904,-2.02371 3.574904,-7.083253 0,-9.106959 z"
     id="path2-7"
     style="fill:#ff7301;stroke-width:0.530967" />
  <path
     class="cls-1"
     d="M 132.68118,97.946777 171.95687,75.712266 C 175.53177,73.688562 180,76.218066 180,80.265487 v 44.469033 c 0,4.04742 -4.46823,6.57692 -8.04313,4.55322 l -39.27569,-22.23452 c -3.57491,-2.02371 -3.57491,-7.083253 0,-9.106963 z"
     id="path2-7-2"
     style="fill:#ff7301;stroke-width:0.530968" />
  <path
     class="cls-1"
     d="m 107.3466,20.886398 c 12.423,0 24.484,2.687 35.847,7.985 20.571,9.593 36.176,26.622 43.939,47.951 7.763,21.329 6.756,44.405002 -2.837,64.976002 -6.971,14.949 -18.011,27.443 -31.927,36.131 -13.577,8.476 -29.191,12.957 -45.153,12.957 -12.423005,0 -24.484005,-2.687 -35.847005,-7.985 -20.571,-9.593 -36.176,-26.622 -43.938996,-47.951 -7.763,-21.329 -6.756,-44.405002 2.837,-64.976002 6.970996,-14.949 18.010996,-27.443 31.926996,-36.131 13.577,-8.476 29.191,-12.957 45.153005,-12.957 m 0,-14.9999996 c -37.654005,0 -73.711001,21.3709996 -90.674001,57.7479996 -23.3349997,50.042002 -1.685,109.526002 48.356996,132.861002 13.665,6.372 28.042,9.391 42.187005,9.391 37.654,0 73.711,-21.371 90.674,-57.748 23.335,-50.042002 1.685,-109.526002 -48.357,-132.861002 -13.665,-6.3719996 -28.042,-9.3909996 -42.187,-9.3909996 z"
     id="path1"
     style="fill:#ff7301" />
  <path
     style="fill:none;fill-opacity:1;stroke:#ff7301;stroke-width:7.5;stroke-linecap:round;stroke-linejoin:miter;stroke-dasharray:none;stroke-opacity:1"
     d="m 118.69612,66.511608 27.49869,1.447299 m -1.4473,-27.498682 1.4473,27.498682"
     id="path299" />
  <path
     style="fill:none;fill-opacity:1;stroke:#ff7301;stroke-width:7.5;stroke-linecap:round;stroke-dasharray:none;stroke-opacity:1"
     d="m 65.724862,65.139369 c 44.103888,-52.69554 76.752208,0.572777 76.752208,0.572777"
     id="path2" />
  <path
     style="fill:none;fill-opacity:1;stroke:#ff7301;stroke-width:7.5;stroke-linecap:round;stroke-linejoin:miter;stroke-dasharray:none;stroke-opacity:1"
     d="m 91.398317,143.0922 -27.49869,-1.4473 m 1.4473,27.49868 -1.4473,-27.49868"
     id="path299-0" />
  <path
     style="fill:none;fill-opacity:1;stroke:#ff7301;stroke-width:7.5;stroke-linecap:round;stroke-dasharray:none;stroke-opacity:1"
     d="m 144.36958,144.46444 c -44.10389,52.69554 -76.752213,-0.57278 -76.752213,-0.57278"
     id="path2-2" />
  <circle
     style="fill:#ff7301;fill-opacity:1;stroke:none;stroke-width:0;stroke-linecap:round;stroke-dasharray:none;stroke-opacity:1"
     id="path3"
     cx="105"
     cy="105"
     r="5" />
  <circle
     style="fill:#ff7301;fill-opacity:1;stroke:none;stroke-width:0;stroke-linecap:round;stroke-dasharray:none;stroke-opacity:1"
     id="path3-5"
     cx="105"
     cy="125"
     r="5" />
  <circle
     style="fill:#ff7301;fill-opacity:1;stroke:none;stroke-width:0;stroke-linecap:round;stroke-dasharray:none;stroke-opacity:1"
     id="path3-7"
     cx="105"
     cy="85"
     r="5" />
</svg>
