<?xml version="1.0" encoding="UTF-8"?>
<svg id="logo_pfad" data-name="logo pfad" xmlns="http://www.w3.org/2000/svg" viewBox="0 0 215 215">
  <defs>
    <style>
      .cls-1 {
        fill: #ff7301;
      }
    </style>
  </defs>
  <path class="cls-1" d="M107.565,22.5c12.423,0,24.484,2.687,35.847,7.985,20.571,9.593,36.176,26.622,43.939,47.951,7.763,21.329,6.756,44.405-2.837,64.976-6.971,14.949-18.011,27.443-31.927,36.131-13.577,8.476-29.191,12.957-45.153,12.957-12.423,0-24.484-2.687-35.847-7.985-20.571-9.593-36.176-26.622-43.939-47.951-7.763-21.329-6.756-44.405,2.837-64.976,6.971-14.949,18.011-27.443,31.927-36.131,13.577-8.476,29.191-12.957,45.153-12.957M107.565,7.5c-37.654,0-73.711,21.371-90.674,57.748-23.335,50.042-1.685,109.526,48.357,132.861,13.665,6.372,28.042,9.391,42.187,9.391,37.654,0,73.711-21.371,90.674-57.748,23.335-50.042,1.685-109.526-48.357-132.861-13.665-6.372-28.042-9.391-42.187-9.391h0Z"/>
  <rect class="cls-1" x="62.5" y="62.5" width="90" height="90" rx="11.068" ry="11.068"/>
</svg>