<?xml version="1.0" encoding="UTF-8" standalone="no"?>
<svg
   id="logo_pfad"
   data-name="logo pfad"
   viewBox="0 0 200 200"
   version="1.1"
   width="200"
   height="200"
   xmlns="http://www.w3.org/2000/svg"
   xmlns:svg="http://www.w3.org/2000/svg">
  <defs
     id="defs1">
    <style
       id="style1">
      .cls-1 {
        fill: #ff7301;
      }
    </style>
  </defs>
  <path
     class="cls-1"
     d="m 101.19675,42.545538 c 34.28954,-0.702764 66.39544,26.579895 71.41162,60.495432 6.01891,33.24645 -14.6844,68.9559 -46.71319,79.95093 C 95.33952,194.4429 57.879842,182.26125 40.45541,154.51278 23.038511,128.20137 25.361376,90.556906 46.75251,67.134211 60.307513,51.716029 80.631037,42.39009 101.19675,42.545538 Z m 0,-12.771223 C 63.525981,29.116096 27.718472,56.765134 18.692045,93.339276 8.7162534,129.87658 26.495356,171.89178 60.12625,189.59738 c 31.360851,17.59506 73.57209,12.42501 99.46386,-12.65886 25.78463,-24.04368 34.27917,-64.63368 19.37257,-96.751846 C 165.75749,50.216515 134.04357,29.337707 101.19675,29.774315 Z"
     id="path1"
     style="stroke-width:0.851415" />
  <path
     class="cls-1"
     d="m 99.39484,53.51391 c -2.661266,23.410387 -6.440566,46.77007 -8.333335,70.22151 1.35727,7.24484 16.676435,7.0531 19.060695,1.70751 1.25733,-14.3371 -2.76944,-28.476681 -3.88355,-42.728802 -1.58456,-11.055734 -2.09844,-22.503751 -4.87625,-33.245716 -1.74667,-0.512537 -1.661115,2.962983 -1.96756,4.045498 z"
     id="path2"
     style="stroke-width:0.396772" />
  <path
     class="cls-1"
     d="m 149.63684,117.35506 c -13.82068,-2.58268 -27.42237,-6.61633 -41.40603,-8.14863 -4.8155,3.50817 -3.77049,14.60707 -0.96875,19.11851 13.29854,-0.0466 26.08275,-5.13137 39.20637,-7.02857 2.39073,-0.13971 9.0322,-2.7031 3.16841,-3.94131 z"
     id="path2-9"
     style="fill:#ff7301;stroke-width:0.304472" />
  <rect
     class="cls-1"
     x="90.189133"
     y="11.405304"
     width="21.714188"
     height="29.205511"
     rx="2.6703625"
     ry="3.5916288"
     id="rect1"
     style="fill:#ff7301;stroke-width:0.279809" />
  <rect
     class="cls-1"
     x="-21.714188"
     y="84.014977"
     width="21.714188"
     height="34.510872"
     rx="2.6703625"
     ry="4.2440701"
     id="rect1-3"
     style="fill:#ff7301;stroke-width:0.304164"
     transform="rotate(-90)" />
  <rect
     class="cls-1"
     x="-36.727959"
     y="145.94301"
     width="16.177509"
     height="53.368717"
     rx="1.9894741"
     ry="6.5631661"
     id="rect1-3-2"
     style="fill:#ff7301;stroke-width:0.326481"
     transform="rotate(-90)" />
</svg>
